<?xml version="1.0" standalone="no"?>
<!DOCTYPE svg PUBLIC "-//W3C//DTD SVG 20010904//EN"
 "http://www.w3.org/TR/2001/REC-SVG-20010904/DTD/svg10.dtd">
<svg version="1.0" xmlns="http://www.w3.org/2000/svg"
 width="1289.000000pt" height="1289.000000pt" viewBox="0 0 1289.000000 1289.000000"
 preserveAspectRatio="xMidYMid meet">
<metadata>
Created by potrace 1.11, written by Peter Selinger 2001-2013
</metadata>
<g transform="translate(0.000000,1289.000000) scale(0.100000,-0.100000)"
fill="#000000" stroke="none">
<path d="M6415 12870 c-11 -6 -157 -66 -325 -135 -481 -199 -691 -286 -740
-307 -25 -10 -54 -23 -65 -28 -11 -4 -83 -34 -160 -65 -77 -32 -153 -63 -170
-70 -16 -8 -147 -61 -290 -120 -143 -58 -273 -112 -290 -120 -16 -7 -174 -72
-350 -145 -176 -73 -410 -169 -520 -215 -110 -46 -306 -126 -435 -180 -129
-53 -248 -102 -265 -110 -16 -7 -147 -61 -290 -120 -247 -103 -279 -116 -350
-144 -16 -6 -86 -35 -154 -64 l-124 -52 -122 -295 c-68 -162 -127 -306 -133
-320 -6 -14 -29 -68 -50 -120 -146 -353 -406 -980 -418 -1005 -7 -16 -23 -55
-34 -85 -12 -30 -28 -68 -35 -85 -8 -16 -57 -136 -110 -265 -53 -129 -107
-260 -120 -290 -27 -62 -70 -168 -145 -350 -28 -69 -57 -138 -65 -155 -7 -16
-23 -55 -35 -85 -12 -30 -28 -68 -35 -85 -8 -16 -30 -70 -50 -120 -20 -49 -42
-103 -50 -120 -7 -16 -27 -64 -43 -105 -17 -41 -42 -101 -56 -132 -14 -31 -26
-61 -26 -65 0 -5 -9 -27 -19 -49 -10 -21 -44 -100 -74 -174 -30 -74 -103 -249
-161 -389 -58 -140 -103 -258 -99 -261 5 -4 58 -23 118 -42 207 -67 920 -299
975 -318 87 -29 923 -301 940 -305 3 -1 12 -4 20 -8 8 -3 87 -29 175 -58 88
-28 212 -68 275 -89 63 -21 277 -90 475 -155 198 -64 405 -132 460 -150 55
-18 282 -93 505 -165 223 -73 522 -170 665 -217 143 -47 357 -116 475 -155
118 -38 247 -80 285 -93 39 -13 212 -69 385 -125 173 -56 373 -122 445 -145
71 -24 131 -42 132 -41 2 2 -119 213 -207 361 -26 44 -56 96 -67 115 -11 19
-46 80 -78 135 -32 55 -67 116 -78 135 -11 19 -58 100 -105 180 -46 80 -92
159 -102 175 -9 17 -65 113 -125 215 -59 102 -116 201 -127 220 -25 44 -107
183 -184 314 l-59 99 -105 44 c-58 24 -114 47 -125 52 -11 5 -78 33 -150 61
-71 29 -143 58 -160 65 -16 8 -181 75 -365 150 -184 75 -348 143 -365 150 -33
14 -1133 466 -1335 548 -69 27 -130 54 -136 59 -8 6 1 38 31 111 23 56 158
381 299 722 141 341 261 629 266 640 5 11 32 74 58 140 27 66 84 204 127 307
l77 186 77 32 c42 18 391 163 776 322 385 159 714 296 730 303 17 7 55 23 85
35 30 12 69 28 85 35 17 8 98 41 182 75 84 34 159 67 167 74 8 6 69 144 136
306 67 162 144 349 171 415 28 66 54 129 59 140 8 16 368 887 410 990 7 17 16
39 21 50 4 11 15 38 24 60 10 22 21 49 25 60 4 11 17 41 29 67 12 26 21 51 21
54 0 4 10 28 21 53 12 25 25 55 30 66 4 11 23 57 43 103 19 45 31 82 28 81 -4
0 -16 -4 -27 -9z"/>
<path d="M6562 8487 c6 -12 90 -157 186 -322 96 -165 192 -331 215 -370 22
-38 52 -90 67 -115 15 -25 61 -103 103 -175 41 -71 84 -146 96 -165 11 -19 24
-41 27 -49 4 -7 68 -117 142 -245 74 -127 146 -251 159 -274 14 -24 48 -82 76
-130 l52 -85 150 -62 c83 -35 236 -97 340 -140 105 -42 204 -83 220 -90 17 -7
91 -38 165 -69 74 -30 207 -85 295 -121 88 -37 176 -72 195 -80 19 -7 141 -57
270 -110 129 -53 296 -122 370 -152 74 -30 149 -61 165 -68 17 -7 127 -52 245
-100 193 -78 239 -97 317 -131 22 -9 21 -11 -58 -204 -44 -107 -84 -204 -89
-215 -5 -11 -32 -76 -60 -145 -29 -69 -57 -138 -65 -155 -7 -16 -45 -109 -85
-205 -40 -96 -78 -188 -85 -205 -19 -47 -35 -84 -70 -170 -52 -125 -165 -397
-176 -425 -6 -14 -46 -108 -88 -209 l-76 -183 -145 -59 c-80 -33 -152 -63
-160 -66 -66 -26 -379 -156 -395 -163 -11 -5 -49 -21 -85 -36 -66 -26 -87 -35
-175 -72 -27 -12 -144 -60 -260 -108 -115 -47 -229 -95 -252 -105 -24 -10 -45
-19 -47 -19 -2 0 -21 -8 -42 -17 -22 -9 -41 -17 -44 -18 -4 0 -168 -68 -265
-110 -16 -7 -77 -32 -134 -56 l-105 -44 -54 -130 c-29 -71 -56 -137 -59 -145
-3 -8 -13 -33 -23 -55 -10 -22 -37 -87 -60 -145 -23 -58 -51 -124 -62 -148
-10 -24 -33 -78 -49 -120 -17 -42 -39 -95 -48 -117 -10 -22 -48 -114 -86 -205
-37 -91 -73 -178 -80 -195 -7 -16 -29 -70 -49 -120 -21 -49 -43 -103 -51 -120
-7 -16 -20 -48 -30 -70 -9 -22 -20 -49 -25 -60 -5 -11 -61 -148 -125 -305
-112 -273 -127 -309 -159 -382 -42 -96 -54 -128 -50 -128 2 0 57 22 122 49
120 50 593 246 692 286 159 65 307 127 325 135 11 5 49 21 85 35 36 14 74 30
85 35 11 5 76 32 145 60 69 28 134 55 145 60 28 13 344 143 620 256 127 52
239 99 250 104 21 9 116 49 350 145 77 32 208 86 290 120 83 34 287 119 455
189 168 69 460 190 649 268 l344 143 29 70 c35 86 46 111 63 150 51 114 365
883 365 893 0 7 5 12 10 12 6 0 10 5 10 12 0 11 255 635 301 735 10 24 19 46
19 49 0 3 7 20 15 37 14 32 139 333 395 952 72 176 138 334 145 350 7 17 30
71 50 120 20 50 43 103 51 119 8 16 14 33 14 37 0 5 12 34 26 66 14 32 29 67
34 78 4 11 19 47 33 80 15 33 58 139 98 235 39 96 77 189 84 205 7 17 20 50
30 75 10 25 28 68 40 95 53 122 68 164 62 178 -3 9 -65 34 -149 61 -227 73
-813 265 -923 301 -55 18 -275 90 -490 160 -214 70 -428 139 -475 155 -47 16
-240 79 -430 140 -190 62 -397 129 -460 150 -213 71 -645 212 -655 214 -10 2
-596 193 -835 273 -74 24 -142 46 -150 48 -8 2 -105 34 -215 70 -110 37 -204
68 -210 69 -10 2 -636 206 -785 256 -146 48 -494 162 -522 170 -26 8 -27 7
-16 -13z"/>
</g>
</svg>
