<?xml version="1.0" encoding="utf-8"?>
<!-- Generator: Adobe Illustrator 15.0.0, SVG Export Plug-In . SVG Version: 6.00 Build 0)  -->
<!DOCTYPE svg PUBLIC "-//W3C//DTD SVG 1.1//EN" "http://www.w3.org/Graphics/SVG/1.1/DTD/svg11.dtd">
<svg version="1.1" id="Layer_1" xmlns="http://www.w3.org/2000/svg" xmlns:xlink="http://www.w3.org/1999/xlink" x="0px" y="0px"
	 width="500px" height="150px" viewBox="0 0 500 150" enable-background="new 0 0 500 150" xml:space="preserve">
<g>
	<g>
		<polygon fill="#E7296B" points="28.297,63.273 38.394,38.897 62.771,28.8 74.492,0.503 21.82,22.32 21.822,22.325 0,74.993 
			73.266,98.919 60.176,76.368 		"/>
		<polygon fill="#E7296B" points="148.982,75.007 75.716,51.081 88.806,73.631 120.685,86.727 110.588,111.103 86.211,121.199 
			74.491,149.497 127.163,127.68 127.161,127.675 		"/>
	</g>
	<g>
		<path fill="#D5D9ED" d="M212.106,65.409c-0.059-0.173-0.117-0.446-0.173-0.822c-0.058-0.375-0.231-0.793-0.52-1.256
			c-0.463-0.808-1.228-1.485-2.295-2.035c-1.069-0.548-2.584-0.822-4.547-0.822c-2.078,0-3.624,0.361-4.633,1.082
			c-1.011,0.723-1.515,1.66-1.515,2.814c0,0.636,0.173,1.185,0.52,1.646c0.346,0.463,0.851,0.866,1.516,1.213
			c0.663,0.346,1.429,0.649,2.295,0.909c0.866,0.26,1.818,0.563,2.858,0.909c3.118,0.982,5.744,1.862,7.88,2.642
			c2.135,0.779,3.781,1.545,4.937,2.295c1.269,0.865,2.28,1.789,3.031,2.771c0.75,0.982,1.313,1.964,1.689,2.944
			c0.375,0.982,0.606,1.906,0.693,2.771c0.086,0.866,0.13,1.559,0.13,2.078c0,1.617-0.216,3.047-0.649,4.287
			c-0.433,1.242-0.968,2.311-1.602,3.205c-0.636,0.895-1.299,1.645-1.992,2.251s-1.271,1.083-1.732,1.429
			c-1.156,0.751-2.381,1.329-3.681,1.732c-1.299,0.402-2.555,0.706-3.767,0.909c-1.212,0.202-2.267,0.316-3.161,0.347
			c-0.896,0.027-1.515,0.043-1.862,0.043c-3.869,0-7.001-0.447-9.396-1.342c-2.396-0.895-4.259-1.891-5.586-2.988
			c-1.502-1.213-2.57-2.482-3.204-3.811c-0.636-1.328-1.04-2.309-1.213-2.944c-0.404-1.386-0.621-2.714-0.649-3.983
			c-0.03-1.27-0.043-2.107-0.043-2.512h11.171c0.057,1.328,0.202,2.555,0.433,3.681c0.23,1.126,0.923,2.093,2.079,2.901
			c0.576,0.404,1.226,0.723,1.948,0.952c0.721,0.231,1.429,0.39,2.122,0.477c0.693,0.087,1.284,0.145,1.775,0.173
			c0.49,0.029,0.765,0.043,0.823,0.043c2.309,0,3.998-0.433,5.066-1.299c1.067-0.865,1.602-1.904,1.602-3.117
			c0-0.115-0.015-0.347-0.043-0.693c-0.03-0.346-0.16-0.692-0.39-1.039c-0.404-0.865-1.141-1.5-2.208-1.904
			c-1.069-0.404-2.468-0.895-4.2-1.473c-1.502-0.462-2.975-0.938-4.417-1.43c-1.444-0.489-2.888-1.023-4.33-1.602
			c-2.078-0.809-3.912-1.746-5.499-2.814c-1.589-1.067-2.786-2.698-3.594-4.893c-0.346-0.981-0.563-1.876-0.649-2.685
			s-0.13-1.414-0.13-1.819c0-1.847,0.303-3.421,0.909-4.72c0.606-1.299,1.111-2.208,1.516-2.728c0.52-0.75,1.212-1.486,2.079-2.209
			c0.866-0.721,1.918-1.37,3.161-1.948c1.241-0.576,2.685-1.053,4.33-1.429c1.646-0.375,3.508-0.563,5.586-0.563
			c0.403,0,1.154,0.016,2.252,0.044c1.096,0.029,2.338,0.188,3.724,0.477s2.843,0.751,4.374,1.385c1.529,0.637,2.93,1.56,4.2,2.771
			c0.288,0.29,0.721,0.766,1.299,1.429c0.577,0.665,1.096,1.516,1.559,2.555c0.52,1.271,0.823,2.44,0.909,3.508
			c0.086,1.069,0.13,1.834,0.13,2.295L212.106,65.409z"/>
		<path fill="#D5D9ED" d="M265.279,51.986v9.353h-12.645v36.459h-11.431V61.339h-12.211v-9.353H265.279z"/>
		<path fill="#D5D9ED" d="M301.65,69.479v9.267h-17.666v9.786h21.391v9.266h-32.822V51.986h31.437v9.353h-20.005v8.141H301.65z"/>
		<path fill="#D5D9ED" d="M327.804,51.986v36.546h20.698v9.266h-32.13V51.986H327.804z"/>
		<path fill="#D5D9ED" d="M369.285,51.986v36.546h20.697v9.266h-32.129V51.986H369.285z"/>
		<path fill="#D5D9ED" d="M399.422,97.798V51.986h11.432v45.812H399.422z"/>
		<path fill="#D5D9ED" d="M454.674,51.986v9.353h-12.645v36.459h-11.432V61.339h-12.211v-9.353H454.674z"/>
		<path fill="#D5D9ED" d="M491.045,69.479v9.267h-17.668v9.786h21.391v9.266h-32.82V51.986h31.436v9.353h-20.006v8.141H491.045z"/>
	</g>
</g>
</svg>
