<svg xmlns="http://www.w3.org/2000/svg" viewBox="0 0 500 150" width="500" height="150">
	<style>
		tspan { white-space:pre }
		.shp0 { fill: #e7296b } 
	</style>
	<g id="Layer">
		<g id="Layer">
			<path id="Layer" class="shp0" d="M28.3,63.27l10.1,-24.38l24.38,-10.1l11.72,-28.3l-52.67,21.82l0,0l-21.82,52.67l73.27,23.93l-13.09,-22.55z" />
			<path id="Layer" class="shp0" d="M148.98,75.01l-73.27,-23.93l13.09,22.55l31.88,13.1l-10.1,24.38l-24.38,10.1l-11.72,28.3l52.67,-21.82l0,-0.01z" />
		</g>
		<path id="TORQUE " fill="#895757" d="M229.59 44.17L228.21 51.77L212.75 51.77L203.79 101L190.63 101L199.59 51.77L184.13 51.77L185.51 44.17L229.59 44.17ZM246 93.4L251.96 93.4Q257.39 93.4 258.08 89.61L264.28 55.56Q264.97 51.77 259.54 51.77L253.57 51.77Q248.01 51.77 247.32 55.56L241.13 89.61Q240.44 93.4 246 93.4ZM227.88 90.83L234.52 54.34Q235.36 49.73 240.47 47.02Q245.73 44.17 252.38 44.17L263.5 44.17Q273.94 44.17 277.09 50Q278.1 51.9 277.65 54.34L271.01 90.83Q270.18 95.44 264.91 98.29Q259.8 101 253.16 101L242.04 101Q231.59 101 228.45 95.17Q227.44 93.27 227.88 90.83ZM298.6 68.18L309.04 68.18Q314.6 68.18 315.3 64.38L316.9 55.56Q317.59 51.77 312.03 51.77L301.59 51.77L298.6 68.18ZM310.51 75.77L324.64 101L310.94 101L297.12 76.31L292.63 101L279.61 101L289.95 44.17L316.13 44.17Q322.64 44.17 326.75 46.88Q331.01 49.6 330.14 54.34L328.09 65.6Q327.23 70.35 322.13 73.06Q317.02 75.77 310.51 75.77ZM349.64 93.27L355.61 93.27Q361.04 93.27 361.73 89.47L367.9 55.56Q368.59 51.77 363.16 51.77L357.2 51.77Q351.64 51.77 350.94 55.56L344.77 89.47Q344.08 93.27 349.64 93.27ZM381.3 54.21L374.64 90.83Q373.58 96.66 366.03 99.37L371.4 105.61L357.3 105.61L353.28 100.86L345.68 100.86Q335.24 100.86 332.1 95.03Q331.06 93.27 331.51 90.83L338.17 54.21Q338.98 49.73 344.09 47.02Q349.36 44.17 356 44.17L367.12 44.17Q377.57 44.17 380.71 50Q381.75 51.77 381.3 54.21ZM403.74 93.4L409.7 93.4Q415.13 93.4 415.82 89.61L424.09 44.17L437.24 44.17L428.75 90.83Q427.92 95.44 422.65 98.29Q417.54 101 410.9 101L399.78 101Q389.33 101 386.19 95.17Q385.18 93.27 385.62 90.83L394.11 44.17L407.13 44.17L398.87 89.61Q398.18 93.4 403.74 93.4ZM477.52 93.4L476.14 101L437.21 101L447.55 44.17L486.48 44.17L485.1 51.77L459.19 51.77L456.43 66.96L476.77 66.96L475.39 74.55L455.04 74.55L451.61 93.4L477.52 93.4Z" />
	</g>
</svg>